<svg width="1422" height="383" viewBox="0 0 1422 383" fill="none" xmlns="http://www.w3.org/2000/svg">
<g filter="url(#filter0_d_363_20)">
<path d="M17.5 163.5H55.25V268.5C53.75 268.833 51.4167 269.25 48.25 269.75C45.0833 270.25 41.75 270.5 38.25 270.5C31.9167 270.5 26.8333 268.667 23 265C19.3333 261.333 17.5 256.333 17.5 250V163.5ZM55.25 225H17.5V139C17.5 132.667 19.3333 127.667 23 124C26.8333 120.333 31.9167 118.5 38.25 118.5C41.75 118.5 45.0833 118.75 48.25 119.25C51.4167 119.75 53.75 120.167 55.25 120.5V225ZM38.25 208V177.5H113.5C114.667 179.167 115.583 181.333 116.25 184C117.083 186.5 117.5 189.25 117.5 192.25C117.5 197.75 116.333 201.75 114 204.25C111.667 206.75 108.417 208 104.25 208H38.25ZM38.25 270.5V239.75H121.75C122.75 241.417 123.667 243.583 124.5 246.25C125.333 248.917 125.75 251.833 125.75 255C125.75 260.333 124.583 264.25 122.25 266.75C119.917 269.25 116.667 270.5 112.5 270.5H38.25ZM38.25 149V118.5H120.75C121.75 120 122.667 122.083 123.5 124.75C124.333 127.25 124.75 130 124.75 133C124.75 138.5 123.583 142.583 121.25 145.25C118.917 147.75 115.583 149 111.25 149H38.25ZM142.701 251.75C142.701 245.583 144.701 240.333 148.701 236C152.701 231.667 158.035 229.5 164.701 229.5C171.368 229.5 176.618 231.667 180.451 236C184.451 240.333 186.451 245.583 186.451 251.75C186.451 258.083 184.451 263.417 180.451 267.75C176.618 271.917 171.368 274 164.701 274C158.035 274 152.701 271.917 148.701 267.75C144.701 263.417 142.701 258.083 142.701 251.75ZM221.209 227.5L219.709 202.25L281.209 192.5C280.876 188 278.876 183.833 275.209 180C271.709 176 266.376 174 259.209 174C251.709 174 245.459 176.5 240.459 181.5C235.626 186.5 233.126 193.583 232.959 202.75L234.209 220.5C235.709 229.333 239.542 235.667 245.709 239.5C252.042 243.333 259.542 245.25 268.209 245.25C275.209 245.25 281.792 244.333 287.959 242.5C294.126 240.5 299.042 238.417 302.709 236.25C305.209 237.75 307.292 239.833 308.959 242.5C310.626 245.167 311.459 248.083 311.459 251.25C311.459 256.25 309.459 260.417 305.459 263.75C301.626 267.083 296.209 269.583 289.209 271.25C282.376 272.917 274.459 273.75 265.459 273.75C252.626 273.75 241.042 271.333 230.709 266.5C220.542 261.667 212.542 254.417 206.709 244.75C200.876 235.083 197.959 222.917 197.959 208.25C197.959 197.583 199.626 188.333 202.959 180.5C206.459 172.667 211.042 166.25 216.709 161.25C222.542 156.083 229.042 152.333 236.209 150C243.542 147.5 251.209 146.25 259.209 146.25C270.542 146.25 280.542 148.5 289.209 153C297.876 157.5 304.626 163.75 309.459 171.75C314.292 179.583 316.709 188.583 316.709 198.75C316.709 204.083 315.292 208.083 312.459 210.75C309.626 213.417 305.626 215.083 300.459 215.75L221.209 227.5ZM454.451 192.25V215.75H416.951V193.5C416.951 187.333 415.118 182.833 411.451 180C407.951 177.167 403.285 175.75 397.451 175.75C393.451 175.75 389.701 176.25 386.201 177.25C382.868 178.25 379.785 179.5 376.951 181V215.75H339.201V176.75C339.201 172.583 340.118 169.167 341.951 166.5C343.785 163.667 346.368 161.083 349.701 158.75C355.035 155.083 361.868 152.083 370.201 149.75C378.535 147.417 387.785 146.25 397.951 146.25C415.951 146.25 429.868 150.25 439.701 158.25C449.535 166.083 454.451 177.417 454.451 192.25ZM339.201 204.25H376.951V269.75C375.285 270.25 372.868 270.667 369.701 271C366.701 271.5 363.451 271.75 359.951 271.75C352.785 271.75 347.535 270.5 344.201 268C340.868 265.5 339.201 260.917 339.201 254.25V204.25ZM416.951 204.25H454.451V269.75C452.785 270.25 450.451 270.667 447.451 271C444.451 271.5 441.201 271.75 437.701 271.75C430.368 271.75 425.035 270.5 421.701 268C418.535 265.5 416.951 260.917 416.951 254.25V204.25ZM618.895 182.5V213.25H581.145V177.75C581.145 173.083 582.311 169.167 584.645 166C586.978 162.667 590.145 159.667 594.145 157C599.645 153.667 606.228 151.083 613.895 149.25C621.728 147.25 629.895 146.25 638.395 146.25C655.561 146.25 664.145 152 664.145 163.5C664.145 166.333 663.728 168.917 662.895 171.25C662.228 173.583 661.311 175.583 660.145 177.25C658.478 176.917 656.395 176.667 653.895 176.5C651.561 176.167 649.061 176 646.395 176C641.395 176 636.395 176.583 631.395 177.75C626.561 178.917 622.395 180.5 618.895 182.5ZM581.145 204L618.895 204.75V269.75C617.228 270.25 614.811 270.667 611.645 271C608.645 271.5 605.395 271.75 601.895 271.75C594.728 271.75 589.478 270.5 586.145 268C582.811 265.5 581.145 260.917 581.145 254.25V204ZM729.039 274C711.872 274 698.206 270.667 688.039 264C677.872 257.333 672.789 247.417 672.789 234.25C672.789 222.917 676.289 214.25 683.289 208.25C690.289 202.083 700.706 198.25 714.539 196.75L748.039 193.25V190.5C748.039 184.833 745.789 180.75 741.289 178.25C736.956 175.75 730.706 174.5 722.539 174.5C716.206 174.5 709.956 175.25 703.789 176.75C697.789 178.25 692.372 180.083 687.539 182.25C685.539 180.75 683.789 178.667 682.289 176C680.956 173.167 680.289 170.25 680.289 167.25C680.289 160.083 684.122 154.917 691.789 151.75C696.622 149.917 702.206 148.583 708.539 147.75C715.039 146.75 721.289 146.25 727.289 146.25C744.622 146.25 758.456 149.833 768.789 157C779.289 164.167 784.539 175.417 784.539 190.75V247.5C784.539 251.667 783.456 255.083 781.289 257.75C779.122 260.25 776.372 262.417 773.039 264.25C768.039 267.25 761.789 269.583 754.289 271.25C746.956 273.083 738.539 274 729.039 274ZM729.039 246C732.706 246 736.372 245.667 740.039 245C743.706 244.167 746.456 243.167 748.289 242V218.5L727.289 220.5C721.789 220.833 717.372 222 714.039 224C710.872 226 709.289 229 709.289 233C709.289 236.833 710.789 240 713.789 242.5C716.956 244.833 722.039 246 729.039 246ZM811.584 115.5C811.584 109.667 813.584 104.833 817.584 101C821.584 97 826.584 95 832.584 95C838.917 95 844.001 97 847.834 101C851.667 104.833 853.584 109.667 853.584 115.5C853.584 121 851.667 125.75 847.834 129.75C844.001 133.75 838.917 135.75 832.584 135.75C826.584 135.75 821.584 133.75 817.584 129.75C813.584 125.75 811.584 121 811.584 115.5ZM813.834 204H851.584V269.75C849.917 270.25 847.584 270.667 844.584 271C841.584 271.5 838.251 271.75 834.584 271.75C827.417 271.75 822.167 270.5 818.834 268C815.501 265.5 813.834 260.917 813.834 254.25V204ZM851.584 223.5H813.834V151.25C815.501 150.75 817.834 150.333 820.834 150C824.001 149.5 827.334 149.25 830.834 149.25C838.167 149.25 843.417 150.5 846.584 153C849.917 155.333 851.584 159.917 851.584 166.75V223.5ZM996.443 192.25V215.75H958.943V193.5C958.943 187.333 957.11 182.833 953.443 180C949.943 177.167 945.277 175.75 939.443 175.75C935.443 175.75 931.693 176.25 928.193 177.25C924.86 178.25 921.777 179.5 918.943 181V215.75H881.193V176.75C881.193 172.583 882.11 169.167 883.943 166.5C885.777 163.667 888.36 161.083 891.693 158.75C897.027 155.083 903.86 152.083 912.193 149.75C920.527 147.417 929.777 146.25 939.943 146.25C957.943 146.25 971.86 150.25 981.693 158.25C991.527 166.083 996.443 177.417 996.443 192.25ZM881.193 204.25H918.943V269.75C917.277 270.25 914.86 270.667 911.693 271C908.693 271.5 905.443 271.75 901.943 271.75C894.777 271.75 889.527 270.5 886.193 268C882.86 265.5 881.193 260.917 881.193 254.25V204.25ZM958.943 204.25H996.443V269.75C994.777 270.25 992.443 270.667 989.443 271C986.443 271.5 983.193 271.75 979.693 271.75C972.36 271.75 967.027 270.5 963.693 268C960.527 265.5 958.943 260.917 958.943 254.25V204.25ZM1023.99 115.5C1023.99 109.667 1025.99 104.833 1029.99 101C1033.99 97 1038.99 95 1044.99 95C1051.32 95 1056.4 97 1060.24 101C1064.07 104.833 1065.99 109.667 1065.99 115.5C1065.99 121 1064.07 125.75 1060.24 129.75C1056.4 133.75 1051.32 135.75 1044.99 135.75C1038.99 135.75 1033.99 133.75 1029.99 129.75C1025.99 125.75 1023.99 121 1023.99 115.5ZM1026.24 204H1063.99V269.75C1062.32 270.25 1059.99 270.667 1056.99 271C1053.99 271.5 1050.65 271.75 1046.99 271.75C1039.82 271.75 1034.57 270.5 1031.24 268C1027.9 265.5 1026.24 260.917 1026.24 254.25V204ZM1063.99 223.5H1026.24V151.25C1027.9 150.75 1030.24 150.333 1033.24 150C1036.4 149.5 1039.74 149.25 1043.24 149.25C1050.57 149.25 1055.82 150.5 1058.99 153C1062.32 155.333 1063.99 159.917 1063.99 166.75V223.5ZM1208.85 192.25V215.75H1171.35V193.5C1171.35 187.333 1169.51 182.833 1165.85 180C1162.35 177.167 1157.68 175.75 1151.85 175.75C1147.85 175.75 1144.1 176.25 1140.6 177.25C1137.26 178.25 1134.18 179.5 1131.35 181V215.75H1093.6V176.75C1093.6 172.583 1094.51 169.167 1096.35 166.5C1098.18 163.667 1100.76 161.083 1104.1 158.75C1109.43 155.083 1116.26 152.083 1124.6 149.75C1132.93 147.417 1142.18 146.25 1152.35 146.25C1170.35 146.25 1184.26 150.25 1194.1 158.25C1203.93 166.083 1208.85 177.417 1208.85 192.25ZM1093.6 204.25H1131.35V269.75C1129.68 270.25 1127.26 270.667 1124.1 271C1121.1 271.5 1117.85 271.75 1114.35 271.75C1107.18 271.75 1101.93 270.5 1098.6 268C1095.26 265.5 1093.6 260.917 1093.6 254.25V204.25ZM1171.35 204.25H1208.85V269.75C1207.18 270.25 1204.85 270.667 1201.85 271C1198.85 271.5 1195.6 271.75 1192.1 271.75C1184.76 271.75 1179.43 270.5 1176.1 268C1172.93 265.5 1171.35 260.917 1171.35 254.25V204.25ZM1287.39 265.25C1277.39 265.25 1268.14 263.417 1259.64 259.75C1251.31 255.917 1244.64 249.667 1239.64 241C1234.64 232.167 1232.14 220.667 1232.14 206.5C1232.14 193.167 1234.72 182.083 1239.89 173.25C1245.06 164.25 1252.39 157.5 1261.89 153C1271.56 148.5 1282.64 146.25 1295.14 146.25C1304.31 146.25 1312.72 147.417 1320.39 149.75C1328.22 152.083 1334.31 154.667 1338.64 157.5C1341.81 159.5 1344.31 161.917 1346.14 164.75C1347.97 167.583 1348.89 171.083 1348.89 175.25V253.75H1312.64V179.75C1310.64 178.583 1308.39 177.667 1305.89 177C1303.39 176.167 1300.31 175.75 1296.64 175.75C1288.64 175.75 1282.14 178.25 1277.14 183.25C1272.14 188.083 1269.64 195.833 1269.64 206.5C1269.64 218 1271.97 225.917 1276.64 230.25C1281.31 234.583 1287.14 236.75 1294.14 236.75C1299.64 236.75 1304.14 235.833 1307.64 234C1311.31 232 1314.47 229.833 1317.14 227.5L1318.39 257.5C1314.89 259.667 1310.56 261.5 1305.39 263C1300.39 264.5 1294.39 265.25 1287.39 265.25ZM1313.14 268.75V245.25H1348.89V269.75C1348.89 281.25 1346.14 290.667 1340.64 298C1335.14 305.5 1327.72 311 1318.39 314.5C1309.06 318 1298.64 319.75 1287.14 319.75C1278.47 319.75 1270.72 319 1263.89 317.5C1257.22 316 1252.14 314.083 1248.64 311.75C1242.81 307.917 1239.89 302.667 1239.89 296C1239.89 292.5 1240.64 289.333 1242.14 286.5C1243.64 283.667 1245.31 281.583 1247.14 280.25C1251.81 282.917 1257.22 285.167 1263.39 287C1269.56 289 1275.97 290 1282.64 290C1291.97 290 1299.39 288.25 1304.89 284.75C1310.39 281.417 1313.14 276.083 1313.14 268.75Z" fill="white"/>
<path d="M483.744 204H520.994V230.5C520.994 235.167 522.494 238.583 525.494 240.75C528.494 242.75 532.661 243.75 537.994 243.75C540.494 243.75 543.161 243.5 545.994 243C548.827 242.5 551.327 241.833 553.494 241C554.827 242.5 555.994 244.333 556.994 246.5C557.994 248.667 558.494 251.167 558.494 254C558.494 259.667 556.161 264.417 551.494 268.25C546.994 271.917 539.161 273.75 527.994 273.75C513.994 273.75 503.077 270.583 495.244 264.25C487.577 257.75 483.744 247.333 483.744 233V204ZM507.494 181.5V152.5H555.494C556.327 154 557.161 156 557.994 158.5C558.827 161 559.244 163.75 559.244 166.75C559.244 171.917 558.077 175.667 555.744 178C553.411 180.333 550.327 181.5 546.494 181.5H507.494ZM520.994 210.25H483.744V120.5C485.244 120 487.494 119.5 490.494 119C493.661 118.333 496.994 118 500.494 118C507.661 118 512.827 119.333 515.994 122C519.327 124.5 520.994 129.083 520.994 135.75V210.25Z" fill="#EE4036"/>
</g>
<defs>
<filter id="filter0_d_363_20" x="13.5" y="95" width="1339.39" height="232.75" filterUnits="userSpaceOnUse" color-interpolation-filters="sRGB">
<feFlood flood-opacity="0" result="BackgroundImageFix"/>
<feColorMatrix in="SourceAlpha" type="matrix" values="0 0 0 0 0 0 0 0 0 0 0 0 0 0 0 0 0 0 127 0" result="hardAlpha"/>
<feOffset dy="4"/>
<feGaussianBlur stdDeviation="2"/>
<feComposite in2="hardAlpha" operator="out"/>
<feColorMatrix type="matrix" values="0 0 0 0 0 0 0 0 0 0 0 0 0 0 0 0 0 0 0.25 0"/>
<feBlend mode="normal" in2="BackgroundImageFix" result="effect1_dropShadow_363_20"/>
<feBlend mode="normal" in="SourceGraphic" in2="effect1_dropShadow_363_20" result="shape"/>
</filter>
</defs>
</svg>
