<svg xmlns="http://www.w3.org/2000/svg" width="21.5" height="14.947" viewBox="0 0 21.5 14.947"><g id="Apprenez_sur_notre_plateforme" data-name="Apprenez sur notre plateforme" transform="translate(-385.45 -482.152)"><path id="Path_327" data-name="Path 327" d="M405.215,494.2a.257.257,0,0,1-.253-.26v-9.009a1.877,1.877,0,0,0-1.7-2.009H391.077a1.877,1.877,0,0,0-1.7,2.009v9.009a.253.253,0,1,1-.506,0v-9.009a2.389,2.389,0,0,1,2.21-2.53h12.181a2.388,2.388,0,0,1,2.209,2.53v9.009A.257.257,0,0,1,405.215,494.2Z" transform="translate(-0.967)" fill="#0f0f0f" stroke="#0f0f0f" stroke-width="0.5"></path><path id="Path_328" data-name="Path 328" d="M405.215,502.973h-16.1a.261.261,0,0,1,0-.521h16.1a.261.261,0,0,1,0,.521Z" transform="translate(-0.967 -6.124)" fill="#0f0f0f" stroke="#0f0f0f" stroke-width="0.5"></path><path id="Path_329" data-name="Path 329" d="M404.25,501.878h-16.1a2.464,2.464,0,0,1-2.451-2.471v-.278a.258.258,0,0,1,.254-.26h20.491a.258.258,0,0,1,.254.26v.278A2.463,2.463,0,0,1,404.25,501.878Zm-18.041-2.489v.017a1.949,1.949,0,0,0,1.942,1.95h16.1a1.948,1.948,0,0,0,1.941-1.95v-.017Z" transform="translate(0 -5.03)" fill="#0f0f0f" stroke="#0f0f0f" stroke-width="0.5"></path></g></svg>