<svg width="652" height="703" viewBox="0 0 652 703" fill="none" xmlns="http://www.w3.org/2000/svg">
<path d="M54.7549 606.914H600.244" stroke="#263238" stroke-linecap="round" stroke-linejoin="round"/>
<path d="M69.7379 154.519H397.629C399.095 154.519 400.501 155.147 401.538 156.265C402.575 157.383 403.158 158.9 403.158 160.481V177.156H64.209V160.481C64.209 158.9 64.7915 157.383 65.8284 156.265C66.8653 155.147 68.2716 154.519 69.7379 154.519V154.519Z" fill="black" stroke="#263238" stroke-linecap="round" stroke-linejoin="round"/>
<path d="M421.622 181.332H79.0483V441.259H421.622V181.332Z" fill="white" stroke="#263238" stroke-linecap="round" stroke-linejoin="round"/>
<path d="M426.865 165.824C426.865 166.936 426.559 168.023 425.986 168.948C425.412 169.873 424.598 170.594 423.645 171.02C422.692 171.445 421.643 171.557 420.631 171.34C419.619 171.123 418.69 170.587 417.96 169.8C417.231 169.014 416.734 168.012 416.533 166.921C416.332 165.83 416.435 164.699 416.83 163.671C417.224 162.644 417.893 161.765 418.751 161.147C419.609 160.529 420.617 160.2 421.649 160.2C423.032 160.2 424.359 160.792 425.337 161.847C426.315 162.902 426.865 164.332 426.865 165.824Z" fill="white" stroke="#263238" stroke-linecap="round" stroke-linejoin="round"/>
<path d="M408.4 165.824C408.4 166.936 408.094 168.023 407.521 168.948C406.948 169.873 406.133 170.594 405.18 171.02C404.227 171.445 403.178 171.557 402.166 171.34C401.154 171.123 400.225 170.587 399.496 169.8C398.766 169.014 398.269 168.012 398.068 166.921C397.867 165.83 397.97 164.699 398.365 163.671C398.76 162.644 399.428 161.765 400.286 161.147C401.144 160.529 402.152 160.2 403.184 160.2C404.567 160.2 405.894 160.792 406.872 161.847C407.85 162.902 408.4 164.332 408.4 165.824Z" fill="white" stroke="#263238" stroke-linecap="round" stroke-linejoin="round"/>
<path d="M389.896 165.824C389.896 166.936 389.59 168.023 389.017 168.948C388.444 169.873 387.629 170.594 386.676 171.02C385.723 171.445 384.674 171.557 383.662 171.34C382.65 171.123 381.721 170.587 380.992 169.8C380.262 169.014 379.765 168.012 379.564 166.921C379.363 165.83 379.466 164.699 379.861 163.671C380.256 162.644 380.924 161.765 381.782 161.147C382.64 160.529 383.648 160.2 384.68 160.2C386.063 160.2 387.39 160.792 388.368 161.847C389.346 162.902 389.896 164.332 389.896 165.824Z" fill="white" stroke="#263238" stroke-linecap="round" stroke-linejoin="round"/>
<path d="M411.242 192.481H397.681" stroke="#263238" stroke-width="2" stroke-linecap="round" stroke-linejoin="round"/>
<path d="M411.242 198.415H397.681" stroke="#263238" stroke-width="2" stroke-linecap="round" stroke-linejoin="round"/>
<path d="M411.242 204.348H397.681" stroke="#263238" stroke-width="2" stroke-linecap="round" stroke-linejoin="round"/>
<path d="M102.768 345.848H205.432" stroke="#263238" stroke-width="2" stroke-linecap="round" stroke-linejoin="round"/>
<path d="M102.768 354.579H205.432" stroke="#263238" stroke-width="2" stroke-linecap="round" stroke-linejoin="round"/>
<path d="M102.768 363.465H183.72" stroke="#263238" stroke-width="2" stroke-linecap="round" stroke-linejoin="round"/>
<path d="M320.471 184.256V184.959" stroke="#263238" stroke-linecap="round" stroke-linejoin="round"/>
<path d="M320.471 189.177V434.145" stroke="#263238" stroke-linecap="round" stroke-linejoin="round" stroke-dasharray="1 3"/>
<path d="M320.471 436.254V436.957" stroke="#263238" stroke-linecap="round" stroke-linejoin="round"/>
<path d="M83.1689 382.966H83.8209" stroke="#263238" stroke-linecap="round" stroke-linejoin="round"/>
<path d="M87.7202 382.966H413.772" stroke="#263238" stroke-linecap="round" stroke-linejoin="round" stroke-dasharray="1 2.99"/>
<path d="M415.729 382.966H416.381" stroke="#263238" stroke-linecap="round" stroke-linejoin="round"/>
<path d="M322.727 380.534H318.228V385.385H322.727V380.534Z" fill="white" stroke="#263238" stroke-linecap="round" stroke-linejoin="round"/>
<path d="M302.515 336.371H242.453" stroke="#263238" stroke-linecap="round" stroke-linejoin="round"/>
<path d="M303.676 366.319C303.676 366.319 303.676 336.217 272.484 336.217C241.292 336.217 241.24 366.319 241.24 366.319" stroke="#263238" stroke-linecap="round" stroke-linejoin="round"/>
<path d="M303.676 369.159C305.13 369.159 306.31 367.888 306.31 366.319C306.31 364.751 305.13 363.479 303.676 363.479C302.221 363.479 301.042 364.751 301.042 366.319C301.042 367.888 302.221 369.159 303.676 369.159Z" fill="black" stroke="#263238" stroke-linecap="round" stroke-linejoin="round"/>
<path d="M238.632 366.319C238.632 365.763 238.785 365.219 239.071 364.757C239.358 364.295 239.765 363.934 240.242 363.721C240.718 363.508 241.243 363.453 241.749 363.561C242.255 363.67 242.719 363.938 243.084 364.331C243.449 364.724 243.697 365.225 243.798 365.771C243.898 366.316 243.847 366.882 243.649 367.395C243.452 367.909 243.118 368.348 242.689 368.657C242.26 368.966 241.756 369.131 241.24 369.131C240.548 369.131 239.885 368.835 239.396 368.308C238.907 367.78 238.632 367.065 238.632 366.319Z" fill="black" stroke="#263238" stroke-linecap="round" stroke-linejoin="round"/>
<path d="M301.367 338.705H305.983V333.728H301.367V338.705Z" fill="black" stroke="#263238" stroke-linecap="round" stroke-linejoin="round"/>
<path d="M270.176 338.705H274.792V333.728H270.176V338.705Z" fill="black" stroke="#263238" stroke-linecap="round" stroke-linejoin="round"/>
<path d="M238.984 338.705H243.6V333.728H238.984V338.705Z" fill="black" stroke="#263238" stroke-linecap="round" stroke-linejoin="round"/>
<path d="M140.089 245.867V235.913L133.191 235.28C132.781 233.724 132.208 232.224 131.482 230.809L135.942 225.101L129.422 218.071L124.115 222.879C122.807 222.087 121.414 221.468 119.968 221.037L119.368 213.585H110.162L109.562 221.037C108.119 221.466 106.731 222.085 105.428 222.879L100.121 218.071L93.6012 225.101L98.0608 230.809C97.3298 232.221 96.7564 233.722 96.3526 235.28L89.4414 235.913V245.867L96.3526 246.5C96.7587 248.057 97.332 249.557 98.0608 250.971L93.6012 256.679L100.121 263.709L105.428 258.901C106.723 259.693 108.102 260.312 109.536 260.743L110.136 268.194H119.355L119.955 260.743C121.397 260.311 122.785 259.692 124.089 258.901L129.396 263.709L135.916 256.679L131.456 250.971C132.18 249.555 132.753 248.055 133.165 246.5L140.089 245.867ZM114.752 252.447C112.632 252.447 110.56 251.769 108.797 250.5C107.034 249.23 105.66 247.425 104.849 245.313C104.038 243.201 103.826 240.877 104.239 238.635C104.653 236.393 105.674 234.334 107.173 232.718C108.672 231.101 110.582 230.001 112.661 229.555C114.74 229.109 116.895 229.338 118.854 230.212C120.813 231.087 122.487 232.568 123.664 234.469C124.842 236.37 125.471 238.604 125.471 240.89C125.471 243.955 124.342 246.895 122.331 249.062C120.321 251.23 117.595 252.447 114.752 252.447Z" fill="black" stroke="#263238" stroke-linecap="round" stroke-linejoin="round"/>
<path d="M171.437 268.166V261.361L166.704 260.911C166.431 259.848 166.042 258.824 165.543 257.86L168.594 253.952L164.122 249.143L160.496 252.433C159.601 251.897 158.652 251.472 157.667 251.168L157.263 246.05H150.951L150.534 251.154C149.549 251.458 148.6 251.883 147.704 252.419L144.079 249.129L139.606 253.938L142.671 257.846C142.163 258.806 141.768 259.831 141.497 260.897L136.764 261.347V268.152L141.497 268.588C141.766 269.655 142.16 270.68 142.671 271.639L139.606 275.576L144.079 280.385L147.704 277.094C148.6 277.631 149.549 278.055 150.534 278.36L150.951 283.45H157.263L157.667 278.36C158.652 278.055 159.601 277.631 160.496 277.094L164.122 280.385L168.594 275.576L165.608 271.653C166.109 270.691 166.499 269.667 166.769 268.602L171.437 268.166ZM154.107 272.666C152.654 272.668 151.233 272.206 150.023 271.337C148.814 270.469 147.871 269.233 147.314 267.786C146.756 266.339 146.61 264.746 146.893 263.209C147.176 261.672 147.875 260.26 148.903 259.153C149.93 258.045 151.239 257.29 152.665 256.985C154.09 256.68 155.567 256.838 156.909 257.439C158.251 258.04 159.398 259.057 160.204 260.361C161.009 261.665 161.438 263.197 161.435 264.764C161.432 266.858 160.659 268.866 159.285 270.347C157.911 271.828 156.049 272.662 154.107 272.666V272.666Z" fill="black" stroke="#263238" stroke-linecap="round" stroke-linejoin="round"/>
<path d="M333.354 399.501H383.858" stroke="#263238" stroke-width="2" stroke-linecap="round" stroke-linejoin="round"/>
<path d="M333.354 408.232H383.858" stroke="#263238" stroke-width="2" stroke-linecap="round" stroke-linejoin="round"/>
<path d="M333.354 417.118H362.147" stroke="#263238" stroke-width="2" stroke-linecap="round" stroke-linejoin="round"/>
<path d="M266.812 420.746H240.223C238.494 420.746 236.836 420.005 235.613 418.686C234.39 417.368 233.703 415.58 233.703 413.716C233.703 411.851 234.39 410.063 235.613 408.745C236.836 407.426 238.494 406.686 240.223 406.686H266.812C268.541 406.686 270.199 407.426 271.422 408.745C272.645 410.063 273.332 411.851 273.332 413.716C273.332 415.58 272.645 417.368 271.422 418.686C270.199 420.005 268.541 420.746 266.812 420.746Z" fill="black" stroke="#263238" stroke-linecap="round" stroke-linejoin="round"/>
<path d="M316.363 420.746H289.775C288.046 420.746 286.387 420.005 285.165 418.686C283.942 417.368 283.255 415.58 283.255 413.716C283.255 411.851 283.942 410.063 285.165 408.745C286.387 407.426 288.046 406.686 289.775 406.686H316.363C318.093 406.686 319.751 407.426 320.974 408.745C322.197 410.063 322.883 411.851 322.883 413.716C322.883 415.58 322.197 417.368 320.974 418.686C319.751 420.005 318.093 420.746 316.363 420.746Z" fill="black" stroke="#263238" stroke-linecap="round" stroke-linejoin="round"/>
<path d="M393.43 269.91H337.045V330.705H393.43V269.91Z" fill="white" stroke="#263238" stroke-linecap="round" stroke-linejoin="round"/>
<path d="M337.045 269.91L393.43 330.705" stroke="#263238" stroke-linecap="round" stroke-linejoin="round"/>
<path d="M393.43 269.91L337.045 330.705" stroke="#263238" stroke-linecap="round" stroke-linejoin="round"/>
<path d="M359.161 200.889V215.076L353.358 221.333H340.201V200.889H359.161Z" fill="white" stroke="#263238" stroke-linecap="round" stroke-linejoin="round"/>
<path d="M359.161 215.076L353.358 221.333V215.076H359.161Z" fill="white" stroke="#263238" stroke-linecap="round" stroke-linejoin="round"/>
<path d="M157.523 310.599V324.786L151.72 331.057H138.563V310.599H157.523Z" fill="white" stroke="#263238" stroke-linecap="round" stroke-linejoin="round"/>
<path d="M157.523 324.786L151.72 331.057V324.786H157.523Z" fill="white" stroke="#263238" stroke-linecap="round" stroke-linejoin="round"/>
<path d="M85.8814 398.01V412.197L80.0786 418.454H66.9082V398.01H85.8814Z" fill="white" stroke="#263238" stroke-linecap="round" stroke-linejoin="round"/>
<path d="M85.8814 412.197L80.0786 418.454V412.197H85.8814Z" fill="white" stroke="#263238" stroke-linecap="round" stroke-linejoin="round"/>
<path d="M454.666 233.79H384.693V281.073H454.666V233.79Z" fill="#263238" stroke="#263238" stroke-linecap="round" stroke-linejoin="round"/>
<path d="M454.666 233.79H384.693V240.974H454.666V233.79Z" fill="black" stroke="#263238" stroke-linecap="round" stroke-linejoin="round"/>
<path d="M391.826 247.034H409.717" stroke="white" stroke-linecap="round" stroke-linejoin="round"/>
<path d="M400.771 252.419H431.728" stroke="white" stroke-linecap="round" stroke-linejoin="round"/>
<path d="M396.82 257.439H405.935" stroke="white" stroke-linecap="round" stroke-linejoin="round"/>
<path d="M400.771 263.358H421.622" stroke="white" stroke-linecap="round" stroke-linejoin="round"/>
<path d="M391.826 268.729H409.717" stroke="white" stroke-linecap="round" stroke-linejoin="round"/>
<path d="M191.505 424.036H121.533V471.319H191.505V424.036Z" fill="#263238" stroke="#263238" stroke-linecap="round" stroke-linejoin="round"/>
<path d="M191.505 424.036H121.533V431.22H191.505V424.036Z" fill="black" stroke="#263238" stroke-linecap="round" stroke-linejoin="round"/>
<path d="M128.679 437.294H146.557" stroke="white" stroke-linecap="round" stroke-linejoin="round"/>
<path d="M137.611 442.665H168.568" stroke="white" stroke-linecap="round" stroke-linejoin="round"/>
<path d="M133.66 447.684H142.775" stroke="white" stroke-linecap="round" stroke-linejoin="round"/>
<path d="M137.611 453.604H158.462" stroke="white" stroke-linecap="round" stroke-linejoin="round"/>
<path d="M128.679 458.989H146.557" stroke="white" stroke-linecap="round" stroke-linejoin="round"/>
<path d="M323.223 311.542C316.324 312.174 307.575 303.288 307.575 303.288C307.407 303.475 307.201 303.617 306.974 303.703C306.746 303.79 306.503 303.817 306.264 303.785C306.025 303.752 305.796 303.659 305.596 303.515C305.395 303.37 305.229 303.177 305.11 302.951C303.989 301.207 299.125 297.172 298.851 293.685C298.577 290.198 304.315 284.546 304.315 284.546C299.894 285.84 299.425 283.042 299.425 283.042C299.425 283.042 306.87 276.42 309.478 276.237C310.496 276.167 314.929 278.922 319.219 282.634C323.705 286.529 332.129 300.237 332.129 300.237C332.129 300.237 360.621 322.55 367.819 328.259C377.326 335.795 388.592 349.166 388.592 349.166C388.592 349.166 426.408 367.557 436.84 377.666L422.731 413.687C422.731 413.687 388.344 388.843 384.915 382.544C381.485 376.246 378.043 380.028 374.6 375.908C371.158 371.789 367.859 367.078 367.859 367.078C361.736 363.891 356.179 359.57 351.441 354.312C343.409 345.412 336.328 331.816 331.881 323.633C329.579 319.153 326.659 315.077 323.223 311.542V311.542Z" fill="white" stroke="#263238" stroke-linecap="round" stroke-linejoin="round"/>
<path d="M325.322 306.283C325.322 306.283 315.06 303.598 314.173 296.3C313.781 294.45 313.03 292.711 311.969 291.197C311.969 291.197 302.398 290.691 302.998 286.487L315.777 285.263C320.429 287.19 324.346 290.745 326.9 295.358" fill="white"/>
<path d="M325.322 306.283C325.322 306.283 315.06 303.598 314.173 296.3C313.781 294.45 313.03 292.711 311.969 291.197C311.969 291.197 302.398 290.691 302.998 286.487L315.777 285.263C320.429 287.19 324.346 290.745 326.9 295.358" stroke="#263238" stroke-linecap="round" stroke-linejoin="round"/>
<path d="M307.562 303.288C308.017 302.377 308.169 301.325 307.992 300.308C307.992 300.308 310.808 299.745 310.496 297.06C310.496 297.06 314.668 296.511 311.969 291.197" stroke="#263238" stroke-linecap="round" stroke-linejoin="round"/>
<path d="M310.496 297.06C310.496 297.06 304.875 292.575 304.25 290.522" stroke="#263238" stroke-linecap="round" stroke-linejoin="round"/>
<path d="M307.992 300.308C307.992 300.308 302.007 296.371 301.902 294.079" stroke="#263238" stroke-linecap="round" stroke-linejoin="round"/>
<path d="M309.361 280.089C309.361 280.089 307.457 283.773 304.302 284.546" stroke="#263238" stroke-linecap="round" stroke-linejoin="round"/>
<path d="M308.409 281.523C309.41 282.087 310.354 282.761 311.226 283.534" stroke="#263238" stroke-linecap="round" stroke-linejoin="round"/>
<path d="M526.973 406.053C512.217 399.32 496.997 393.838 481.45 389.659C458.552 383.88 421.466 378.72 421.466 378.72C421.466 378.72 431.663 490.919 428.977 497.668C426.291 504.417 410.173 527.081 410.173 527.081C410.173 527.081 497.398 563.75 512.603 566.871C527.807 569.992 519.879 513.092 519.879 513.092C519.879 513.092 535.944 440.767 526.973 406.053Z" fill="#263238"/>
<path d="M495.664 394.003C495.664 394.003 497.737 398.221 492.286 400.429C478.164 406.053 463.116 401.09 464.72 395.128C465.333 392.85 468.827 395.128 468.632 386.692C468.535 385.392 468.212 384.123 467.68 382.952C466.683 380.671 465.482 378.5 464.094 376.471C462.586 374.212 460.972 372.039 459.256 369.961C459.256 369.961 481.672 354.495 498.298 369.961C498.272 369.891 492.091 373.265 495.664 394.003Z" fill="white" stroke="#263238" stroke-linecap="round" stroke-linejoin="round"/>
<path d="M523.439 593.838C514.611 609.304 469.818 616.629 445.368 615.94C420.918 615.251 350.567 579.384 345.795 571.736C341.374 564.706 330.512 541.408 347.255 527.334C348.676 526.152 350.185 525.098 351.767 524.185C363.229 517.492 439.461 538.596 439.461 538.596C439.461 538.596 444.182 535.377 445.916 535.616C451.236 536.347 455.044 540.987 465.789 544.291C473.313 546.611 493.851 537.697 506.969 545.359C508.425 546.199 509.768 547.249 510.96 548.481C523.217 561.106 532.254 578.33 523.439 593.838Z" fill="black"/>
<path opacity="0.3" d="M506.969 545.359C493.525 544.389 481.541 547.426 473.17 552.755C463.246 559.082 416.38 583.42 416.38 583.42C416.485 580.805 419.093 575.532 419.093 575.532C414.685 571.314 403.158 568.01 403.158 568.01C394.225 559.785 358.822 535.25 347.255 527.334C348.676 526.152 350.185 525.098 351.767 524.185C363.229 517.492 439.461 538.596 439.461 538.596C439.461 538.596 444.182 535.377 445.916 535.616C451.236 536.347 455.044 540.987 465.789 544.291C473.352 546.611 493.851 537.697 506.969 545.359Z" fill="black" fill-opacity="0.7"/>
<path d="M523.439 593.838C514.611 609.304 469.818 616.629 445.368 615.94C420.918 615.251 350.567 579.384 345.795 571.736C341.374 564.706 330.512 541.408 347.255 527.334C348.676 526.152 350.185 525.098 351.767 524.185C363.229 517.492 439.461 538.596 439.461 538.596C439.461 538.596 444.182 535.377 445.916 535.616C451.236 536.347 455.044 540.987 465.789 544.291C473.313 546.611 493.851 537.697 506.969 545.359C508.425 546.199 509.768 547.249 510.96 548.481C523.217 561.106 532.254 578.33 523.439 593.838Z" stroke="#263238" stroke-linecap="round" stroke-linejoin="round"/>
<path d="M509.695 607.842L510.816 613.143C510.816 613.143 507.817 622.31 494.634 623.814C481.45 625.318 473.639 628.454 467.25 628.862C463.91 629.146 460.552 629.089 457.222 628.693L455.918 626.612L509.695 607.842Z" fill="white" stroke="#263238" stroke-linecap="round" stroke-linejoin="round"/>
<path d="M433.137 607.28L455.983 626.612C466.994 625.597 477.935 623.832 488.739 621.325V621.325C499.562 618.626 509.016 614.759 509.525 609.445C510.32 601.374 502.314 599.167 492.808 599.476C491.034 599.476 489.209 599.673 487.37 599.87C472.152 601.627 452.801 592.573 452.801 592.573L433.137 607.28Z" fill="#263238"/>
<path opacity="0.3" d="M509.538 609.248C505.103 611.027 500.847 613.288 496.837 615.997C496.837 615.997 475.621 627.765 443.008 615.645L433.137 607.28L452.801 592.559C452.801 592.559 472.139 601.627 487.37 599.856C489.209 599.645 491.034 599.504 492.808 599.462C502.249 599.153 510.19 601.318 509.538 609.248Z" fill="black" fill-opacity="0.7"/>
<path d="M433.137 607.28L455.983 626.612C466.994 625.597 477.935 623.832 488.739 621.325V621.325C499.562 618.626 509.016 614.759 509.525 609.445C510.32 601.374 502.314 599.167 492.808 599.476C491.034 599.476 489.209 599.673 487.37 599.87C472.152 601.627 452.801 592.573 452.801 592.573L433.137 607.28Z" stroke="#263238" stroke-linecap="round" stroke-linejoin="round"/>
<path d="M454.431 614.9C450.311 615.617 454.836 624.742 460.417 621.93C465.998 619.118 458.552 614.169 454.431 614.9Z" fill="white"/>
<path opacity="0.2" d="M462.164 620.482C459.179 620.089 456.215 619.531 453.284 618.809C452.501 617.023 452.684 615.195 454.431 614.9C457.887 614.281 463.703 617.726 462.164 620.482Z" fill="black" fill-opacity="0.7"/>
<path d="M454.431 614.9C450.311 615.617 454.836 624.742 460.417 621.93C465.998 619.118 458.552 614.169 454.431 614.9Z" stroke="#263238" stroke-linecap="round" stroke-linejoin="round"/>
<path d="M488.739 621.311C499.562 618.612 509.016 614.745 509.525 609.431C510.32 601.36 502.314 599.153 492.808 599.462C492.391 599.898 483.171 609.501 488.739 621.311Z" fill="white"/>
<path opacity="0.3" d="M509.538 609.248C505.103 611.027 500.848 613.288 496.837 615.997C493.979 617.422 490.983 618.501 487.905 619.217C484.254 608.39 492.417 599.87 492.808 599.462C502.249 599.153 510.19 601.318 509.538 609.248Z" fill="black" fill-opacity="0.7"/>
<path d="M488.739 621.311C499.562 618.612 509.016 614.745 509.525 609.431C510.32 601.36 502.314 599.153 492.808 599.462C492.391 599.898 483.171 609.501 488.739 621.311Z" stroke="#263238" stroke-linecap="round" stroke-linejoin="round"/>
<path d="M481.02 611.287H481.085C481.233 611.294 481.382 611.27 481.521 611.215C481.661 611.16 481.789 611.076 481.898 610.968C482.007 610.859 482.095 610.728 482.157 610.583C482.219 610.437 482.254 610.28 482.259 610.12C482.628 606.665 483.997 603.423 486.171 600.854C486.276 600.742 486.359 600.608 486.416 600.461C486.472 600.314 486.502 600.156 486.502 599.996C486.502 599.837 486.472 599.679 486.416 599.532C486.359 599.385 486.276 599.251 486.171 599.139C485.958 598.914 485.673 598.788 485.375 598.788C485.078 598.788 484.792 598.914 484.58 599.139C482.023 602.129 480.435 605.933 480.055 609.979C480.029 610.289 480.114 610.598 480.294 610.842C480.474 611.085 480.734 611.245 481.02 611.287Z" fill="white" stroke="#263238" stroke-linecap="round" stroke-linejoin="round"/>
<path d="M476.495 611.61H476.586C476.735 611.614 476.882 611.586 477.02 611.527C477.159 611.469 477.285 611.382 477.392 611.271C477.498 611.16 477.584 611.027 477.642 610.88C477.701 610.733 477.732 610.575 477.734 610.415C477.993 606.904 479.198 603.551 481.202 600.77C481.312 600.648 481.397 600.504 481.452 600.345C481.508 600.187 481.532 600.017 481.523 599.848C481.514 599.679 481.473 599.514 481.402 599.363C481.331 599.211 481.231 599.078 481.11 598.97C480.989 598.863 480.848 598.784 480.696 598.738C480.545 598.692 480.387 598.681 480.231 598.705C480.075 598.729 479.926 598.787 479.793 598.876C479.659 598.965 479.544 599.084 479.455 599.223C477.128 602.423 475.742 606.302 475.478 610.359C475.467 610.668 475.566 610.97 475.755 611.203C475.944 611.436 476.209 611.581 476.495 611.61Z" fill="white" stroke="#263238" stroke-linecap="round" stroke-linejoin="round"/>
<path d="M471.083 610.963C471.231 610.979 471.379 610.963 471.521 610.916C471.663 610.869 471.794 610.792 471.908 610.69C472.022 610.588 472.116 610.463 472.185 610.322C472.254 610.18 472.296 610.026 472.309 609.867C472.661 605.649 476.025 600.123 476.064 600.025C476.23 599.753 476.289 599.423 476.231 599.105C476.172 598.787 476 598.506 475.752 598.323C475.502 598.146 475.198 598.082 474.905 598.145C474.612 598.208 474.354 598.394 474.187 598.661C474.03 598.9 470.457 604.692 470.053 609.585C470.033 609.749 470.044 609.916 470.086 610.075C470.127 610.235 470.198 610.383 470.295 610.512C470.391 610.641 470.511 610.747 470.646 610.825C470.782 610.902 470.93 610.949 471.083 610.963V610.963Z" fill="white" stroke="#263238" stroke-linecap="round" stroke-linejoin="round"/>
<path d="M465.972 610.387C466.071 610.4 466.172 610.4 466.271 610.387C466.418 610.361 466.559 610.304 466.686 610.22C466.812 610.135 466.922 610.024 467.008 609.893C467.094 609.762 467.155 609.614 467.188 609.457C467.22 609.301 467.223 609.139 467.197 608.981C466.402 603.807 470.862 599.378 470.901 599.336C471.048 599.111 471.121 598.839 471.108 598.564C471.094 598.289 470.995 598.026 470.826 597.82C470.657 597.613 470.428 597.474 470.176 597.425C469.925 597.376 469.666 597.42 469.44 597.55C469.219 597.761 464.016 602.907 465.02 609.417C465.068 609.664 465.184 609.889 465.355 610.063C465.525 610.236 465.74 610.349 465.972 610.387V610.387Z" fill="white" stroke="#263238" stroke-linecap="round" stroke-linejoin="round"/>
<path d="M460.417 608.939C460.538 608.96 460.661 608.96 460.782 608.939C461.063 608.865 461.307 608.678 461.464 608.417C461.622 608.156 461.681 607.839 461.63 607.533C460.652 602.921 464.863 597.691 464.916 597.691C465.111 597.447 465.209 597.131 465.19 596.81C465.17 596.489 465.034 596.189 464.811 595.975C464.701 595.868 464.572 595.786 464.433 595.733C464.293 595.68 464.145 595.658 463.997 595.667C463.849 595.676 463.704 595.717 463.571 595.787C463.438 595.856 463.318 595.954 463.22 596.074C463.012 596.327 458.187 602.274 459.426 608.123C459.498 608.35 459.63 608.548 459.806 608.693C459.983 608.838 460.195 608.924 460.417 608.939Z" fill="white" stroke="#263238" stroke-linecap="round" stroke-linejoin="round"/>
<path d="M342.952 599.912L341.322 605.058C341.322 605.058 343.409 614.52 356.37 617.501C369.332 620.482 376.791 624.531 383.05 625.628C386.345 626.282 389.689 626.602 393.039 626.584L394.539 624.658L342.952 599.912Z" fill="white" stroke="#263238" stroke-linecap="round" stroke-linejoin="round"/>
<path d="M419.093 608.025L394.499 624.658C383.647 622.403 372.937 619.412 362.434 615.701V615.701C351.937 611.793 342.874 606.872 342.874 601.529C342.874 593.402 351.05 592.123 360.478 593.501C362.238 593.754 364.038 594.105 365.85 594.513C380.807 597.986 400.928 591.167 400.928 591.167L419.093 608.025Z" fill="#263238"/>
<path opacity="0.3" d="M419.093 608.025L404.631 617.867C392.905 613.94 382.622 606.133 375.239 595.554C383.956 595.347 392.609 593.886 400.967 591.209L419.093 608.025Z" fill="black" fill-opacity="0.7"/>
<path d="M419.093 608.025L394.499 624.658C383.647 622.403 372.937 619.412 362.434 615.701V615.701C351.937 611.793 342.874 606.872 342.874 601.529C342.874 593.402 351.05 592.123 360.478 593.501C362.238 593.754 364.038 594.105 365.85 594.513C380.807 597.986 400.928 591.167 400.928 591.167L419.093 608.025Z" stroke="#263238" stroke-linecap="round" stroke-linejoin="round"/>
<path d="M362.434 615.687C351.937 611.779 342.874 606.858 342.874 601.515C342.874 593.388 351.05 592.109 360.478 593.487C360.895 593.965 369.124 604.58 362.434 615.687Z" fill="white" stroke="#263238" stroke-linecap="round" stroke-linejoin="round"/>
<path d="M371.092 606.591H371.027C370.727 606.569 370.447 606.421 370.248 606.179C370.048 605.938 369.944 605.621 369.958 605.297C369.937 601.826 368.901 598.451 366.998 595.652C366.887 595.529 366.801 595.382 366.747 595.222C366.692 595.061 366.669 594.889 366.679 594.718C366.69 594.547 366.734 594.38 366.808 594.229C366.882 594.077 366.985 593.944 367.11 593.838C367.235 593.732 367.379 593.655 367.533 593.613C367.687 593.571 367.848 593.565 368.004 593.594C368.161 593.623 368.31 593.688 368.442 593.783C368.575 593.878 368.687 594.002 368.771 594.148C371.021 597.394 372.23 601.343 372.214 605.396C372.21 605.714 372.091 606.018 371.881 606.242C371.671 606.465 371.388 606.591 371.092 606.591Z" fill="white" stroke="#263238" stroke-linecap="round" stroke-linejoin="round"/>
<path d="M375.552 607.392H375.448C375.149 607.363 374.872 607.208 374.679 606.961C374.486 606.713 374.392 606.393 374.417 606.07C374.51 602.556 373.644 599.09 371.927 596.102C371.841 595.969 371.781 595.819 371.749 595.661C371.717 595.503 371.714 595.339 371.741 595.18C371.767 595.021 371.823 594.869 371.904 594.733C371.985 594.596 372.09 594.479 372.214 594.387C372.337 594.294 372.476 594.229 372.623 594.195C372.769 594.16 372.921 594.157 373.069 594.186C373.216 594.215 373.357 594.274 373.484 594.362C373.61 594.449 373.719 594.563 373.805 594.696C375.819 598.138 376.819 602.158 376.673 606.225C376.66 606.537 376.536 606.832 376.328 607.049C376.119 607.266 375.842 607.389 375.552 607.392Z" fill="white" stroke="#263238" stroke-linecap="round" stroke-linejoin="round"/>
<path d="M381.003 607.392C380.703 607.385 380.418 607.251 380.208 607.02C379.999 606.789 379.881 606.478 379.881 606.155C379.96 601.866 377.143 596.06 377.104 596.003C376.966 595.714 376.939 595.378 377.029 595.067C377.119 594.757 377.32 594.497 377.586 594.344C377.853 594.196 378.163 594.168 378.449 594.265C378.735 594.363 378.973 594.578 379.112 594.865C379.242 595.118 382.228 601.276 382.15 606.197C382.143 606.519 382.019 606.825 381.804 607.049C381.589 607.272 381.301 607.396 381.003 607.392V607.392Z" fill="white" stroke="#263238" stroke-linecap="round" stroke-linejoin="round"/>
<path d="M386.141 607.392H385.841C385.553 607.303 385.308 607.096 385.162 606.814C385.015 606.532 384.978 606.199 385.058 605.888C386.362 600.84 382.359 595.919 382.32 595.877C382.207 595.761 382.117 595.62 382.057 595.465C381.996 595.309 381.966 595.142 381.968 594.974C381.971 594.805 382.005 594.639 382.07 594.485C382.135 594.332 382.228 594.195 382.344 594.082C382.46 593.969 382.597 593.884 382.745 593.83C382.894 593.777 383.051 593.758 383.206 593.773C383.362 593.789 383.513 593.839 383.65 593.92C383.787 594.001 383.907 594.112 384.002 594.246C384.198 594.485 388.879 600.193 387.236 606.548C387.159 606.795 387.012 607.01 386.815 607.161C386.618 607.313 386.382 607.394 386.141 607.392Z" fill="white" stroke="#263238" stroke-linecap="round" stroke-linejoin="round"/>
<path d="M391.813 606.591C391.688 606.596 391.564 606.572 391.448 606.52C391.306 606.471 391.174 606.392 391.061 606.287C390.948 606.182 390.856 606.053 390.791 605.909C390.725 605.764 390.687 605.607 390.679 605.446C390.671 605.286 390.693 605.125 390.744 604.974C392.165 600.503 388.475 594.836 388.449 594.78C388.342 594.652 388.262 594.501 388.213 594.336C388.164 594.172 388.148 593.999 388.166 593.827C388.183 593.656 388.235 593.491 388.316 593.342C388.397 593.194 388.506 593.065 388.637 592.965C388.767 592.866 388.916 592.797 389.073 592.763C389.23 592.73 389.391 592.732 389.547 592.771C389.703 592.81 389.85 592.883 389.977 592.987C390.105 593.091 390.21 593.223 390.287 593.374C390.47 593.641 394.682 600.109 392.895 605.789C392.813 606.026 392.665 606.23 392.471 606.373C392.278 606.517 392.048 606.592 391.813 606.591V606.591Z" fill="white" stroke="#263238" stroke-linecap="round" stroke-linejoin="round"/>
<path d="M397.173 613.185C401.202 614.38 395.869 622.886 390.535 619.512C385.202 616.137 393.156 612.004 397.173 613.185Z" fill="white" stroke="#263238" stroke-linecap="round" stroke-linejoin="round"/>
<path d="M350.672 568.024C356.709 577.149 374.613 587.23 392.4 595.539C395.581 601.221 399.333 606.506 403.588 611.301C414.568 623.477 419.041 616.658 419.041 616.658C419.041 616.658 425.978 615.814 436.214 614.31C436.64 615.38 437.383 616.268 438.327 616.835C439.27 617.403 440.362 617.617 441.43 617.445C442.734 617.22 445.342 615.167 448.224 612.454C474.082 608.236 509.173 601.206 518.64 593.023" fill="black"/>
<path d="M350.672 568.024C356.709 577.149 374.613 587.23 392.4 595.539C395.581 601.221 399.333 606.506 403.588 611.301C414.568 623.477 419.041 616.658 419.041 616.658C419.041 616.658 425.978 615.814 436.214 614.31C436.64 615.38 437.383 616.268 438.327 616.835C439.27 617.403 440.362 617.617 441.43 617.445C442.734 617.22 445.342 615.167 448.224 612.454C474.082 608.236 509.173 601.206 518.64 593.023" stroke="#263238" stroke-linecap="round" stroke-linejoin="round"/>
<path d="M508.56 550.646C504.088 545.345 499.615 545.106 490.226 545.823C490.226 545.823 465.724 554.259 448.629 565.353C431.533 576.446 406.601 588.214 406.601 588.214C406.601 588.214 398.998 585.838 393.704 588.214C393.704 588.214 389.988 588.524 392.478 595.525" stroke="#263238" stroke-linecap="round" stroke-linejoin="round"/>
<path d="M519.931 582.323C519.931 582.323 520.061 590.492 509.316 596.144" stroke="#263238" stroke-linecap="round" stroke-linejoin="round"/>
<path d="M401.423 548.242C401.423 548.242 418.375 561.458 421.779 570.175C425.11 571.689 428.328 573.48 431.402 575.532" stroke="#263238" stroke-linecap="round" stroke-linejoin="round"/>
<path d="M423.005 559.222C424.248 563.021 424.456 567.125 423.605 571.047" stroke="#263238" stroke-linecap="round" stroke-linejoin="round"/>
<path d="M419.093 550.646C420.016 552.095 420.828 553.623 421.518 555.215" stroke="#263238" stroke-linecap="round" stroke-linejoin="round"/>
<path d="M443.243 549.437C443.243 549.437 448.915 557.62 450.323 564.256" stroke="#263238" stroke-linecap="round" stroke-linejoin="round"/>
<path d="M474.839 598.872C476.949 598.738 479.048 598.456 481.124 598.028" stroke="#263238" stroke-linecap="round" stroke-linejoin="round"/>
<path d="M421.623 593.009C437.696 596.442 454.002 598.459 470.379 599.04" stroke="#263238" stroke-linecap="round" stroke-linejoin="round"/>
<path d="M536.362 469.028C536.362 469.028 533.297 526.674 529.685 529.978C526.073 533.282 520.375 534.308 509.59 535.278C498.806 536.248 451.106 539.398 451.106 539.398L445.968 522.877C445.968 522.877 471.331 520.065 482.585 515.636C491.069 512.509 499.75 510.038 508.56 508.241C508.56 508.241 506.422 493.745 506.422 487.502V458.145" fill="white"/>
<path d="M536.362 469.028C536.362 469.028 533.297 526.674 529.685 529.978C526.073 533.282 520.375 534.308 509.59 535.278C498.806 536.248 451.106 539.398 451.106 539.398L445.968 522.877C445.968 522.877 471.331 520.065 482.585 515.636C491.069 512.509 499.75 510.038 508.56 508.241C508.56 508.241 506.422 493.745 506.422 487.502V458.145" stroke="#263238" stroke-linecap="round" stroke-linejoin="round"/>
<path d="M526.973 406.053C538.592 413.772 542.021 431.614 538.005 469.702C538.005 469.702 541.434 474.202 536.362 476.451C536.362 476.451 517.362 468.789 508.534 474.075C499.706 479.362 502.014 466.778 502.014 466.778C502.014 466.778 498.376 431.74 506.422 425.399" fill="#263238"/>
<path d="M505.353 420.043C505.353 420.043 494.177 432.57 504.049 464.233C503.426 466.817 502.99 469.45 502.745 472.107C502.745 474.23 505.444 475.326 505.444 475.326" stroke="white" stroke-linecap="round" stroke-linejoin="round"/>
<path d="M492.286 441.259C492.286 441.259 493.095 456.725 501.988 463.432" stroke="white" stroke-linecap="round" stroke-linejoin="round"/>
<path d="M495.155 405.35C495.155 405.35 477.825 412.506 464.042 404.577C455.866 399.88 459.23 392.33 459.23 392.33" stroke="white" stroke-linecap="round" stroke-linejoin="round"/>
<path d="M370.532 550.674H464.863C466.994 550.675 469.115 550.377 471.174 549.788L489.783 544.53C490.04 544.458 490.268 544.296 490.431 544.07C490.594 543.843 490.682 543.565 490.682 543.278V543.278C490.682 542.932 490.555 542.599 490.327 542.354C490.1 542.109 489.791 541.971 489.47 541.971H366.633C366.313 541.975 366.008 542.114 365.784 542.359C365.559 542.604 365.433 542.934 365.433 543.278V545.177C365.433 546.635 365.97 548.033 366.926 549.064C367.883 550.095 369.18 550.674 370.532 550.674Z" fill="#757575" stroke="#263238" stroke-linecap="round" stroke-linejoin="round"/>
<path d="M361.208 545.612H455.8C456.171 545.631 456.54 545.55 456.874 545.377C457.208 545.203 457.498 544.944 457.716 544.62C457.934 544.297 458.075 543.921 458.125 543.525C458.176 543.128 458.134 542.725 458.004 542.35L440.465 468.774C440.23 467.872 439.74 467.07 439.062 466.483C438.383 465.896 437.552 465.551 436.684 465.498H342.066C341.695 465.483 341.326 465.566 340.992 465.741C340.658 465.916 340.369 466.177 340.151 466.501C339.933 466.825 339.793 467.202 339.742 467.599C339.692 467.995 339.733 468.399 339.862 468.774L357.414 542.35C357.648 543.255 358.141 544.057 358.822 544.642C359.503 545.228 360.338 545.567 361.208 545.612V545.612Z" fill="#999999" stroke="#263238" stroke-linecap="round" stroke-linejoin="round"/>
<path d="M345.404 468.114H343.617" stroke="#263238" stroke-linecap="round" stroke-linejoin="round"/>
<path d="M359.265 468.114H350.033" stroke="#263238" stroke-linecap="round" stroke-linejoin="round"/>
<path d="M453.505 536.319L438.014 471.39C437.781 470.488 437.293 469.687 436.617 469.1C435.941 468.512 435.112 468.167 434.245 468.114H361.352" stroke="#263238" stroke-linecap="round" stroke-linejoin="round"/>
<path d="M454.848 541.971L454.457 540.354" stroke="#263238" stroke-linecap="round" stroke-linejoin="round"/>
<path d="M389.648 507.411C389.713 508.007 389.826 508.595 389.987 509.169C391.187 513.598 395.034 516.297 398.568 515.172C402.102 514.048 403.992 509.548 402.793 505.12C401.593 500.691 397.72 497.991 394.186 499.116C393.774 499.252 393.376 499.436 393 499.664C393.194 501.167 392.981 502.697 392.386 504.072C391.792 505.447 390.841 506.606 389.648 507.411V507.411Z" fill="white" stroke="#263238" stroke-linecap="round" stroke-linejoin="round"/>
<path d="M431.402 369.525C423.213 368.569 418.754 360.175 413.825 358.867C411.075 358.158 408.38 357.218 405.766 356.055C405.766 356.055 404.071 349.672 401.528 351.837C398.985 354.003 395.647 401.751 398.92 400.246C402.193 398.742 402.206 404.38 402.206 404.38L432.602 433.259L458.082 384.611C458.082 384.611 439.592 370.495 431.402 369.525Z" fill="#263238"/>
<path d="M183.708 199.497V198.794H184.36" stroke="#263238" stroke-linecap="round" stroke-linejoin="round"/>
<path d="M188.193 198.794H298.512" stroke="#263238" stroke-linecap="round" stroke-linejoin="round" stroke-dasharray="0.98 2.93"/>
<path d="M300.416 198.794H301.068V199.497" stroke="#263238" stroke-linecap="round" stroke-linejoin="round"/>
<path d="M301.081 203.715V280.342" stroke="#263238" stroke-linecap="round" stroke-linejoin="round" stroke-dasharray="1 3"/>
<path d="M301.068 282.451V283.154H300.416" stroke="#263238" stroke-linecap="round" stroke-linejoin="round"/>
<path d="M296.595 283.154H186.276" stroke="#263238" stroke-linecap="round" stroke-linejoin="round" stroke-dasharray="0.98 2.93"/>
<path d="M184.36 283.154H183.708V282.451" stroke="#263238" stroke-linecap="round" stroke-linejoin="round"/>
<path d="M183.721 278.233V201.606" stroke="#263238" stroke-linecap="round" stroke-linejoin="round" stroke-dasharray="1 3"/>
<path d="M242.401 200.875C243.466 200.875 244.331 199.944 244.331 198.794C244.331 197.645 243.466 196.714 242.401 196.714C241.335 196.714 240.471 197.645 240.471 198.794C240.471 199.944 241.335 200.875 242.401 200.875Z" fill="black" stroke="#263238" stroke-linecap="round" stroke-linejoin="round"/>
<path d="M183.721 243.055C184.787 243.055 185.651 242.124 185.651 240.974C185.651 239.825 184.787 238.893 183.721 238.893C182.655 238.893 181.791 239.825 181.791 240.974C181.791 242.124 182.655 243.055 183.721 243.055Z" fill="black" stroke="#263238" stroke-linecap="round" stroke-linejoin="round"/>
<path d="M242.401 285.235C243.466 285.235 244.331 284.304 244.331 283.154C244.331 282.005 243.466 281.073 242.401 281.073C241.335 281.073 240.471 282.005 240.471 283.154C240.471 284.304 241.335 285.235 242.401 285.235Z" fill="black" stroke="#263238" stroke-linecap="round" stroke-linejoin="round"/>
<path d="M301.081 243.055C302.147 243.055 303.011 242.124 303.011 240.974C303.011 239.825 302.147 238.893 301.081 238.893C300.015 238.893 299.151 239.825 299.151 240.974C299.151 242.124 300.015 243.055 301.081 243.055Z" fill="black" stroke="#263238" stroke-linecap="round" stroke-linejoin="round"/>
<path d="M303.324 280.736H298.825V285.587H303.324V280.736Z" fill="black" stroke="#263238" stroke-linecap="round" stroke-linejoin="round"/>
<path d="M303.324 196.376H298.825V201.227H303.324V196.376Z" fill="black" stroke="#263238" stroke-linecap="round" stroke-linejoin="round"/>
<path d="M185.964 280.736H181.465V285.587H185.964V280.736Z" fill="black" stroke="#263238" stroke-linecap="round" stroke-linejoin="round"/>
<path d="M185.964 196.376H181.465V201.227H185.964V196.376Z" fill="black" stroke="#263238" stroke-linecap="round" stroke-linejoin="round"/>
<path d="M293.648 206.26H191.506V276.237H293.648V206.26Z" fill="white" stroke="#263238" stroke-linecap="round" stroke-linejoin="round"/>
<path d="M293.648 255.569L282.29 267.815L251.568 234.69L238.645 248.623L218.042 226.408L191.506 255.006V276.237H293.648V255.569Z" fill="black" stroke="#263238" stroke-linecap="round" stroke-linejoin="round"/>
<path d="M272.484 233.902C276.467 233.902 279.695 230.421 279.695 226.127C279.695 221.833 276.467 218.352 272.484 218.352C268.501 218.352 265.273 221.833 265.273 226.127C265.273 230.421 268.501 233.902 272.484 233.902Z" fill="black" stroke="#263238" stroke-linecap="round" stroke-linejoin="round"/>
<path d="M436.84 382.432C436.84 382.432 429.016 398.137 428.09 422.166" stroke="white" stroke-linecap="round" stroke-linejoin="round"/>
<path d="M413.837 393.3C413.837 393.3 416.172 406.657 422.965 416.331" stroke="white" stroke-linecap="round" stroke-linejoin="round"/>
<path d="M445.968 448.416C445.968 448.416 457.704 489.977 483.197 502.209" stroke="white" stroke-linecap="round" stroke-linejoin="round"/>
<path d="M476.847 373.181C476.847 373.181 475.739 382.249 467.654 382.882C466.658 380.6 465.457 378.429 464.068 376.4C468.266 375.061 472.533 373.986 476.847 373.181V373.181Z" fill="#263238"/>
<path d="M494.073 373.813C494.073 373.813 507.595 375.599 513.255 356.027C518.914 336.456 514.468 321.707 492.091 314.607C479.677 310.67 467.315 313.833 462.79 323.971C458.956 332.646 460.769 339.858 459.895 342.769C458.904 346.031 449.75 348.801 449.75 351.036C449.75 352.878 454.823 356.027 454.823 356.027L453.336 360.892L454.731 361.694C454.731 361.694 452.123 372.646 453.336 376.513C454.197 379.325 477.108 380.506 478.894 373.504" fill="white"/>
<path d="M494.073 373.813C494.073 373.813 507.595 375.599 513.255 356.027C518.914 336.456 514.468 321.707 492.091 314.607C479.677 310.67 467.315 313.833 462.79 323.971C458.956 332.646 460.769 339.858 459.895 342.769C458.904 346.031 449.75 348.801 449.75 351.036C449.75 352.878 454.823 356.027 454.823 356.027L453.336 360.892L454.731 361.694C454.731 361.694 452.123 372.646 453.336 376.513C454.197 379.325 477.108 380.506 478.894 373.504" stroke="#263238" stroke-linecap="round" stroke-linejoin="round"/>
<path d="M462.92 331.071C462.92 331.071 467.393 332.28 468.619 334.811" stroke="#263238" stroke-linecap="round" stroke-linejoin="round"/>
<path d="M463.703 342.192C463.507 343.598 463.807 344.822 464.381 344.906C464.955 344.99 465.554 343.922 465.75 342.502C465.946 341.082 465.633 339.872 465.072 339.788C464.511 339.704 463.898 340.772 463.703 342.192Z" fill="#263238"/>
<path d="M454.731 361.694C454.731 361.694 462.007 364.702 464.72 362.889" stroke="#263238" stroke-linecap="round" stroke-linejoin="round"/>
<path d="M457.287 341.068C456.752 344.217 457.404 346.973 458.747 347.24C460.09 347.507 461.629 345.187 462.164 342.052C462.698 338.916 462.06 336.132 460.703 335.865C459.347 335.598 457.835 337.932 457.287 341.068Z" stroke="#263238" stroke-linecap="round" stroke-linejoin="round"/>
<path d="M513.854 325.053C512.765 319.356 509.731 314.308 505.352 310.909C500.472 307.214 494.883 304.748 489 303.696C489 303.696 493.316 305.735 494.959 308.42C494.959 308.42 483.784 299.366 470.509 305.313C457.235 311.26 458.891 326.712 458.891 326.712L460.821 322.663C460.821 322.663 460.599 327.486 462.946 329.257C463.65 326.895 464.608 324.63 465.802 322.508C465.802 322.508 469.323 333.911 479.011 337.777C478.353 335.98 478.298 333.991 478.855 332.153C478.855 332.153 484.227 344.681 482.663 350.797L484.371 354.003C484.371 354.003 490.539 347.268 495.559 352.878C498.441 356.112 490.043 368.344 488.844 368.344L493.916 376.372C493.916 376.372 506.591 378.327 513.893 363.521C521.196 348.716 519.409 342.431 519.409 342.431C519.409 342.431 521.796 346.031 522.017 348.055C522.043 348.027 524.208 332.125 513.854 325.053Z" fill="#263238"/>
<path d="M484.032 355.423C484.032 355.423 487.944 341.25 496.264 346.242C504.583 351.233 498.65 358.797 495.664 361.708C492.678 364.618 490.448 369.905 488.505 369.905C486.562 369.905 486.132 367.332 486.132 367.332" fill="white"/>
<path d="M484.032 355.423C484.032 355.423 487.944 341.25 496.264 346.242C504.583 351.233 498.65 358.797 495.664 361.708C492.678 364.618 490.448 369.905 488.505 369.905C486.562 369.905 486.132 367.332 486.132 367.332" stroke="#263238" stroke-linecap="round" stroke-linejoin="round"/>
<path d="M462.164 342.052L485.375 347.24" stroke="#263238" stroke-linecap="round" stroke-linejoin="round"/>
</svg>
